# xmcd CD database file generated by OrangeCD 6.2
#
# Track frame offsets:
#	180
#	9752
#	24696
#	36548
#	50021
#	69104
#	84871
#	105305
#	116802
#	133361
#	147625
#	162897
#
# Disc length: 2369 seconds
#
# Revision: 0
# Processed by: cddbd v1.5.2PL0 Copyright (c) Steve Scherf et al.
# Submitted via: OrangeCD 6.2
#
DISCID=a0093f0c
DTITLE=Mark Stafford - The Birdman
DYEAR=1996
DGENRE=
TTITLE0=Birdman
TTITLE1=Mellow Down Easy
TTITLE2=She's My Girl
TTITLE3=Let Me Explain
TTITLE4=His Mistake
TTITLE5=Crazy Mixed Up World
TTITLE6=Who's Been Talkin'
TTITLE7=Don't Start Me Talkin'
TTITLE8=Sad Hours
TTITLE9=Too Late
TTITLE10=Big Bossman
TTITLE11=Got You On My Mind
EXTD=
EXTT0=
EXTT1=
EXTT2=
EXTT3=
EXTT4=
EXTT5=
EXTT6=
EXTT7=
EXTT8=
EXTT9=
EXTT10=
EXTT11=
PLAYORDER=
